<!DOCTYPE svg PUBLIC "-//W3C//DTD SVG 1.1//EN" "http://www.w3.org/Graphics/SVG/1.1/DTD/svg11.dtd">

<!-- Uploaded to: SVG Repo, www.svgrepo.com, Transformed by: SVG Repo Mixer Tools -->
<svg fill="#950051" height="800px" width="800px" version="1.1" id="Layer_1" xmlns="http://www.w3.org/2000/svg" xmlns:xlink="http://www.w3.org/1999/xlink" viewBox="0 0 512 512" xml:space="preserve" stroke="#950051">

<g id="SVGRepo_bgCarrier" stroke-width="0"/>

<g id="SVGRepo_tracerCarrier" stroke-linecap="round" stroke-linejoin="round"/>

<g id="SVGRepo_iconCarrier"> <g> <g> <path d="M509.313,109.764L402.246,2.685c-3.579-3.578-9.382-3.581-12.96-0.002l-22.816,22.804 c-1.719,1.718-2.686,4.05-2.686,6.482c0,2.432,0.965,4.762,2.684,6.482l47.063,47.063l-43.589,43.589l-64.367-64.365 c-3.581-3.579-9.383-3.579-12.963,0c-3.579,3.58-3.579,9.382,0,12.961l16.415,16.415L114.582,288.556 c-3.58,3.579-3.58,9.382,0,12.961l19.232,19.232l-26.858,26.858c-3.579,3.579-3.579,9.382,0,12.961l15.758,15.758L2.688,496.354 c-3.58,3.579-3.58,9.382,0,12.961C4.478,511.105,6.824,512,9.17,512c2.345,0,4.692-0.895,6.482-2.685l120.025-120.026 l15.762,15.764c1.79,1.79,4.136,2.685,6.482,2.685c2.345,0,4.692-0.895,6.482-2.685l26.858-26.857l19.22,19.219 c1.79,1.789,4.137,2.685,6.482,2.685c2.345,0,4.692-0.895,6.482-2.685l194.44-194.44l16.421,16.421 c1.79,1.79,4.137,2.685,6.482,2.685s4.692-0.895,6.482-2.685c3.579-3.579,3.579-9.382,0-12.961l-64.366-64.369l43.589-43.589 l47.055,47.055c1.79,1.79,4.137,2.685,6.482,2.685s4.692-0.895,6.482-2.685l22.804-22.804 C512.891,119.146,512.891,113.344,509.313,109.764z M157.921,385.609L126.4,354.088l20.377-20.376l31.521,31.521L157.921,385.609z M404.92,190.013L216.96,377.971l-82.935-82.936l187.958-187.958L404.92,190.013z M480.027,126.086l-94.115-94.115l9.85-9.845 l94.108,94.118L480.027,126.086z"/> </g> </g> <g> <g> <path d="M306.121,183.299l-17.176-17.176c-3.581-3.579-9.383-3.579-12.963,0c-3.579,3.58-3.579,9.382,0,12.961l17.176,17.176 c1.79,1.79,4.137,2.685,6.482,2.685c2.345,0,4.692-0.895,6.482-2.685C309.701,192.681,309.701,186.878,306.121,183.299z"/> </g> </g> <g> <g> <path d="M257.934,231.487l-17.179-17.176c-3.578-3.58-9.382-3.578-12.961,0c-3.579,3.579-3.579,9.383,0.001,12.963l17.178,17.176 c1.789,1.789,4.135,2.685,6.481,2.685c2.345,0,4.692-0.895,6.482-2.685C261.515,240.87,261.515,235.066,257.934,231.487z"/> </g> </g> <g> <g> <path d="M209.746,279.676L192.568,262.5c-3.581-3.58-9.383-3.58-12.963,0c-3.58,3.579-3.58,9.382,0,12.961l17.176,17.176 c1.79,1.79,4.137,2.685,6.482,2.685c2.345,0,4.692-0.895,6.482-2.685C213.326,289.058,213.326,283.256,209.746,279.676z"/> </g> </g> </g>

</svg>

<svg xmlns="http://www.w3.org/2000/svg" x="0px" y="0px" width="64" height="64" viewBox="0 0 172 172" style=" fill:#26e07f;"><g fill="none" fill-rule="nonzero" stroke="none" stroke-width="1" stroke-linecap="butt" stroke-linejoin="miter" stroke-miterlimit="10" stroke-dasharray="" stroke-dashoffset="0" font-family="none" font-weight="none" font-size="none" text-anchor="none" style="mix-blend-mode: normal"><path d="M0,172v-172h172v172z" fill="none"></path><g fill="#1fb141"><path d="M21.5,21.5v129h64.5v-32.25v-64.5v-32.25zM86,53.75c0,17.7805 14.4695,32.25 32.25,32.25c17.7805,0 32.25,-14.4695 32.25,-32.25c0,-17.7805 -14.4695,-32.25 -32.25,-32.25c-17.7805,0 -32.25,14.4695 -32.25,32.25zM118.25,86c-17.7805,0 -32.25,14.4695 -32.25,32.25c0,17.7805 14.4695,32.25 32.25,32.25c17.7805,0 32.25,-14.4695 32.25,-32.25c0,-17.7805 -14.4695,-32.25 -32.25,-32.25z"></path></g></g></svg>

