<?xml version="1.0" encoding="iso-8859-1"?>
<!-- Uploaded to: SVG Repo, www.svgrepo.com, Generator: SVG Repo Mixer Tools -->
<!DOCTYPE svg PUBLIC "-//W3C//DTD SVG 1.1//EN" "http://www.w3.org/Graphics/SVG/1.1/DTD/svg11.dtd">
<svg fill="#000000" version="1.1" id="Capa_1" xmlns="http://www.w3.org/2000/svg" xmlns:xlink="http://www.w3.org/1999/xlink" 
	 width="800px" height="800px" viewBox="0 0 32.355 32.355"
	 xml:space="preserve">
<g>
	<g>
		<path d="M12.971,27.059c1.392,0.502,0.588-3.951,3.038-4.174c2.45-0.223,1.227,6.307,2.53,5.289
			c3.398-2.66,4.631-11.573,2.449-13.025c-2.123-1.412-3.73,0.612-4.899,0.612c-1.169,0-2.561-1.892-4.898-0.612
			C8.852,16.429,11.58,26.559,12.971,27.059z"/>
		<path d="M16.177,0L4.472,11.09v21.266h23.411V11.09L16.177,0z M13.375,6.219h1.751V4.467h2.102v1.752h1.752v2.102h-1.752v1.752
			h-2.102V8.321h-1.751V6.219z M26.027,30.5H6.329V11.888h19.698V30.5z"/>
	</g>
</g>
</svg>